<mxfile host="app.diagrams.net" modified="2020-11-17T05:00:38.483Z" agent="5.0 (Macintosh; Intel Mac OS X 10_15_7) AppleWebKit/537.36 (KHTML, like Gecko) Chrome/86.0.4240.193 Safari/537.36" etag="gKOI-GiDAqzIPQA4pufn" version="13.9.9" type="github">
  <diagram id="7aJG5Eo7-r_XdaRkXLst" name="Page-1">
    <mxGraphModel dx="3252" dy="1542" grid="0" gridSize="20" guides="1" tooltips="1" connect="1" arrows="1" fold="1" page="0" pageScale="1" pageWidth="827" pageHeight="1169" background="#B266FF" math="0" shadow="0">
      <root>
        <mxCell id="0" />
        <mxCell id="1" parent="0" />
        <mxCell id="ifXXdHXAUJ44kqRWW8Lv-6" value="" style="group;fontColor=#FFFFFF;direction=west;" vertex="1" connectable="0" parent="1">
          <mxGeometry x="-140" y="220" width="600" height="140" as="geometry" />
        </mxCell>
        <mxCell id="ifXXdHXAUJ44kqRWW8Lv-2" value="前端" style="text;html=1;align=center;verticalAlign=middle;whiteSpace=wrap;rounded=0;fontFamily=Verdana;fontSize=42;fontColor=#FFFFFF;direction=west;" vertex="1" parent="ifXXdHXAUJ44kqRWW8Lv-6">
          <mxGeometry width="218.18181818181816" height="140" as="geometry" />
        </mxCell>
        <mxCell id="ifXXdHXAUJ44kqRWW8Lv-4" value="切图 Boy" style="text;html=1;fillColor=none;align=center;verticalAlign=middle;whiteSpace=wrap;rounded=0;fontFamily=Verdana;fontSize=42;fontColor=#FFFFFF;direction=west;" vertex="1" parent="ifXXdHXAUJ44kqRWW8Lv-6">
          <mxGeometry x="272.7272727272727" y="10" width="327.27272727272725" height="120" as="geometry" />
        </mxCell>
        <mxCell id="ifXXdHXAUJ44kqRWW8Lv-5" value="" style="edgeStyle=orthogonalEdgeStyle;rounded=0;orthogonalLoop=1;jettySize=auto;html=1;fontFamily=Verdana;fontSize=42;fontColor=#FFFFFF;strokeColor=none;" edge="1" parent="ifXXdHXAUJ44kqRWW8Lv-6" source="ifXXdHXAUJ44kqRWW8Lv-2" target="ifXXdHXAUJ44kqRWW8Lv-4">
          <mxGeometry relative="1" as="geometry" />
        </mxCell>
        <mxCell id="ifXXdHXAUJ44kqRWW8Lv-23" value="" style="shape=flexArrow;endArrow=classic;html=1;fontFamily=Verdana;fontSize=42;fontColor=#FFFFFF;strokeColor=#FFFFFF;fillColor=#ffffff;" edge="1" parent="ifXXdHXAUJ44kqRWW8Lv-6">
          <mxGeometry width="50" height="50" relative="1" as="geometry">
            <mxPoint x="189" y="74" as="sourcePoint" />
            <mxPoint x="292" y="74" as="targetPoint" />
          </mxGeometry>
        </mxCell>
        <mxCell id="ifXXdHXAUJ44kqRWW8Lv-7" value="" style="group;fontColor=#FFFFFF;direction=west;" vertex="1" connectable="0" parent="1">
          <mxGeometry x="-146" y="600" width="600" height="140" as="geometry" />
        </mxCell>
        <mxCell id="ifXXdHXAUJ44kqRWW8Lv-8" value="机器学习" style="text;html=1;align=center;verticalAlign=middle;whiteSpace=wrap;rounded=0;fontFamily=Verdana;fontSize=42;fontColor=#FFFFFF;direction=west;" vertex="1" parent="ifXXdHXAUJ44kqRWW8Lv-7">
          <mxGeometry width="218.18181818181816" height="140" as="geometry" />
        </mxCell>
        <mxCell id="ifXXdHXAUJ44kqRWW8Lv-9" value="调参 Boy" style="text;html=1;fillColor=none;align=center;verticalAlign=middle;whiteSpace=wrap;rounded=0;fontFamily=Verdana;fontSize=42;fontColor=#FFFFFF;direction=west;" vertex="1" parent="ifXXdHXAUJ44kqRWW8Lv-7">
          <mxGeometry x="294.9972727272727" y="12" width="327.27272727272725" height="120" as="geometry" />
        </mxCell>
        <mxCell id="ifXXdHXAUJ44kqRWW8Lv-10" value="" style="edgeStyle=orthogonalEdgeStyle;rounded=1;orthogonalLoop=1;jettySize=auto;html=1;fontFamily=Verdana;fontSize=42;fontColor=#FFFFFF;strokeColor=none;" edge="1" parent="ifXXdHXAUJ44kqRWW8Lv-7" source="ifXXdHXAUJ44kqRWW8Lv-8" target="ifXXdHXAUJ44kqRWW8Lv-9">
          <mxGeometry relative="1" as="geometry" />
        </mxCell>
        <mxCell id="ifXXdHXAUJ44kqRWW8Lv-26" value="" style="shape=flexArrow;endArrow=classic;html=1;fontFamily=Verdana;fontSize=42;fontColor=#FFFFFF;strokeColor=#FFFFFF;fillColor=#ffffff;" edge="1" parent="ifXXdHXAUJ44kqRWW8Lv-7">
          <mxGeometry width="50" height="50" relative="1" as="geometry">
            <mxPoint x="218.18" y="76" as="sourcePoint" />
            <mxPoint x="321.18" y="76" as="targetPoint" />
          </mxGeometry>
        </mxCell>
        <mxCell id="ifXXdHXAUJ44kqRWW8Lv-12" value="" style="group;fontColor=#FFFFFF;direction=west;" vertex="1" connectable="0" parent="1">
          <mxGeometry x="-148" y="342" width="600" height="140" as="geometry" />
        </mxCell>
        <mxCell id="ifXXdHXAUJ44kqRWW8Lv-13" value="后端" style="text;html=1;align=center;verticalAlign=middle;whiteSpace=wrap;rounded=0;fontFamily=Verdana;fontSize=42;fontColor=#FFFFFF;direction=west;" vertex="1" parent="ifXXdHXAUJ44kqRWW8Lv-12">
          <mxGeometry x="4" y="2" width="218.18181818181816" height="140" as="geometry" />
        </mxCell>
        <mxCell id="ifXXdHXAUJ44kqRWW8Lv-14" value="CRUD Boy" style="text;html=1;fillColor=none;align=center;verticalAlign=middle;whiteSpace=wrap;rounded=0;fontFamily=Verdana;fontSize=42;fontColor=#FFFFFF;direction=west;" vertex="1" parent="ifXXdHXAUJ44kqRWW8Lv-12">
          <mxGeometry x="300.9972727272727" y="12" width="327.27272727272725" height="120" as="geometry" />
        </mxCell>
        <mxCell id="ifXXdHXAUJ44kqRWW8Lv-15" value="" style="edgeStyle=orthogonalEdgeStyle;rounded=0;orthogonalLoop=1;jettySize=auto;html=1;fontFamily=Verdana;fontSize=42;fontColor=#FFFFFF;strokeColor=none;" edge="1" parent="ifXXdHXAUJ44kqRWW8Lv-12" source="ifXXdHXAUJ44kqRWW8Lv-13" target="ifXXdHXAUJ44kqRWW8Lv-14">
          <mxGeometry relative="1" as="geometry" />
        </mxCell>
        <mxCell id="ifXXdHXAUJ44kqRWW8Lv-24" value="" style="shape=flexArrow;endArrow=classic;html=1;fontFamily=Verdana;fontSize=42;fontColor=#FFFFFF;strokeColor=#FFFFFF;fillColor=#ffffff;" edge="1" parent="ifXXdHXAUJ44kqRWW8Lv-12">
          <mxGeometry width="50" height="50" relative="1" as="geometry">
            <mxPoint x="197" y="75" as="sourcePoint" />
            <mxPoint x="300" y="75" as="targetPoint" />
          </mxGeometry>
        </mxCell>
        <mxCell id="ifXXdHXAUJ44kqRWW8Lv-17" value="大数据" style="text;html=1;align=center;verticalAlign=middle;whiteSpace=wrap;rounded=0;fontFamily=Verdana;fontSize=42;fontColor=#FFFFFF;direction=west;" vertex="1" parent="1">
          <mxGeometry x="-146" y="476" width="218.18181818181816" height="140" as="geometry" />
        </mxCell>
        <mxCell id="ifXXdHXAUJ44kqRWW8Lv-18" value="SQL Boy" style="text;html=1;fillColor=none;align=center;verticalAlign=middle;whiteSpace=wrap;rounded=0;fontFamily=Verdana;fontSize=42;fontColor=#FFFFFF;direction=west;" vertex="1" parent="1">
          <mxGeometry x="142.99727272727276" y="484" width="327.27272727272725" height="120" as="geometry" />
        </mxCell>
        <mxCell id="ifXXdHXAUJ44kqRWW8Lv-19" value="" style="edgeStyle=orthogonalEdgeStyle;rounded=0;orthogonalLoop=1;jettySize=auto;html=1;fontFamily=Verdana;fontSize=42;fontColor=#FFFFFF;strokeColor=none;" edge="1" parent="1">
          <mxGeometry relative="1" as="geometry">
            <mxPoint x="80.18181818181802" y="542" as="sourcePoint" />
            <mxPoint x="134.72727272727298" y="542" as="targetPoint" />
          </mxGeometry>
        </mxCell>
        <mxCell id="ifXXdHXAUJ44kqRWW8Lv-25" value="" style="shape=flexArrow;endArrow=classic;html=1;fontFamily=Verdana;fontSize=42;fontColor=#FFFFFF;strokeColor=#FFFFFF;fillColor=#ffffff;" edge="1" parent="1">
          <mxGeometry width="50" height="50" relative="1" as="geometry">
            <mxPoint x="67" y="542" as="sourcePoint" />
            <mxPoint x="170" y="542" as="targetPoint" />
          </mxGeometry>
        </mxCell>
      </root>
    </mxGraphModel>
  </diagram>
</mxfile>
